# xmcd
#
# Track frame offsets: 
#        150
#        13031
#        23209
#        44283
#        55533
#        66457
#        80336
#        91842
#        113115
#        129098
#        141200
#        167554
#        180272
#        193503
#
# Disc length: 2826 seconds
#
# Revision: 0
# Processed by: cddbd v1.5.2PL0 Copyright (c) Steve Scherf et al.
# Submitted via: ExactAudioCopyFreeDBPlugin 1.0
#
DISCID=a90b080e
DTITLE=Memphis Slim - I Am The Blues
DYEAR=2006
DGENRE=Blues
TTITLE0=Only Fools Have Fun
TTITLE1=Little Lonely Girl
TTITLE2=Forty Years or More
TTITLE3=Ballin' The Jack
TTITLE4=Strange, Strange Feelin'
TTITLE5=Easy's Blues
TTITLE6=A Long Time Baby
TTITLE7=Stollin' Thru The Park
TTITLE8=This Little Woman
TTITLE9=Sassy Mae
TTITLE10=Freedom
TTITLE11=I Am The Blues
TTITLE12=Ramble This Highway
TTITLE13=Gamblers Blues
EXTD=
EXTT0=
EXTT1=
EXTT2=
EXTT3=
EXTT4=
EXTT5=
EXTT6=
EXTT7=
EXTT8=
EXTT9=
EXTT10=
EXTT11=
EXTT12=
EXTT13=
PLAYORDER=
